# xmcd
#
# Track frame offsets: 
#        150
#        12966
#        27080
#        40455
#        55119
#        66242
#        80234
#        94889
#        108439
#        121737
#        134153
#        148173
#        159281
#        172641
#        185272
#        196481
#        214092
#        227295
#        239863
#        254649
#        267862
#        281016
#        294466
#        306045
#
# Disc length: 4273 seconds
#
# Revision: 0
# Processed by: cddbd v1.5.2PL0 Copyright (c) Steve Scherf et al.
# Submitted via: ExactAudioCopy v1.0b6
#
DISCID=6210af18
DTITLE=Coleman Hawkins - Complete Albums Collection 1945-1957 (2016)
DYEAR=1955
DGENRE=Jazz Sax Tenor
TTITLE0=Lucky Duck
TTITLE1=Spellbound
TTITLE2=I Can't Get Started
TTITLE3=Lonely Wine
TTITLE4=Ruby (Theme From The Motion Picture, "Ruby Gentry")
TTITLE5=Trust In Me
TTITLE6=If I Could Be With You (One Hour Tonight)
TTITLE7=The Song From Moulin Rouge (Where Is Your Heart?)
TTITLE8=Midnight Sun
TTITLE9=Amber
TTITLE10=Lost In A Fog
TTITLE11=Carioca
TTITLE12=Out Of The Night
TTITLE13=Autumn Leaves
TTITLE14=Stranger In Paradise
TTITLE15=My Mother's Eyes
TTITLE16=Everything Happens To Me
TTITLE17=It Had To Be You
TTITLE18=With Every Breath I Take
TTITLE19=I'm Yours
TTITLE20=I Didn't Know What Time It Was
TTITLE21=Baubles, Bangles And Beads
TTITLE22=Boulevard Of Broken Dreams
TTITLE23=A Cottage For Sale
EXTD=
EXTT0=
EXTT1=
EXTT2=
EXTT3=
EXTT4=
EXTT5=
EXTT6=
EXTT7=
EXTT8=
EXTT9=
EXTT10=
EXTT11=
EXTT12=
EXTT13=
EXTT14=
EXTT15=
EXTT16=
EXTT17=
EXTT18=
EXTT19=
EXTT20=
EXTT21=
EXTT22=
EXTT23=
PLAYORDER=
